<?xml version="1.0" encoding="iso-8859-1"?>
<!-- Generator: Adobe Illustrator 18.0.0, SVG Export Plug-In . SVG Version: 6.00 Build 0)  -->
<!DOCTYPE svg PUBLIC "-//W3C//DTD SVG 1.1//EN" "http://www.w3.org/Graphics/SVG/1.1/DTD/svg11.dtd">
<svg version="1.1" id="Capa_1" xmlns="http://www.w3.org/2000/svg" xmlns:xlink="http://www.w3.org/1999/xlink" x="0px" y="0px"
	 viewBox="0 0 373.41 373.41" style="enable-background:new 0 0 373.41 373.41;" xml:space="preserve">
<path d="M329.533,98.443c23.728-1.005,43.877-14.722,43.877-46.386c0-15.455-12.531-27.985-27.986-27.985
	c-15.455,0-27.986,12.529-27.986,27.985c0,10.453,5.736,19.561,14.225,24.367c-1.611,0.325-3.275,0.497-4.98,0.497
	c-13.844,0-25.108-11.263-25.108-25.107H71.834c0,13.844-11.262,25.107-25.107,25.107c-1.705,0-3.367-0.172-4.98-0.497
	c8.49-4.806,14.223-13.914,14.223-24.367c0-15.455-12.527-27.985-27.982-27.985C12.531,24.073,0,36.602,0,52.058
	c0,31.665,20.146,45.381,43.877,46.386L15.916,222.968h-7.98c0,25.13,20.371,45.502,45.502,45.502
	c25.133,0,45.504-20.372,45.504-45.502h-7.982L62.403,95.795c11.183-4.001,20.407-12.153,25.813-22.591l82.617,12.408l-10.918,71.65
	l11.527,161.262H82.492v30.813h208.424v-30.813h-88.949l11.525-161.262l-10.918-71.65l82.619-12.408
	c5.404,10.438,14.631,18.589,25.814,22.591l-28.556,127.172h-7.984c0,25.13,20.373,45.502,45.506,45.502
	c25.129,0,45.502-20.372,45.502-45.502h-7.982L329.533,98.443z M79.021,222.968H27.854l25.583-113.934L79.021,222.968z
	 M294.39,222.968l25.583-113.933l25.581,113.933H294.39z"/>
<g>
</g>
<g>
</g>
<g>
</g>
<g>
</g>
<g>
</g>
<g>
</g>
<g>
</g>
<g>
</g>
<g>
</g>
<g>
</g>
<g>
</g>
<g>
</g>
<g>
</g>
<g>
</g>
<g>
</g>
</svg>
